<svg width="21" height="21" viewBox="0 0 21 21" fill="none" xmlns="http://www.w3.org/2000/svg">
<path d="M0.881464 0.00525007C0.613696 0.0952636 0.382751 0.270449 0.223903 0.50405C0.0650546 0.73765 -0.0129654 1.01682 0.00175935 1.29893V14.2358C0.00175935 14.5789 0.138058 14.9079 0.38067 15.1505C0.623283 15.3931 0.952336 15.5294 1.29544 15.5294H7.76386V18.1168H5.17649C3.75344 18.1168 2.58912 19.2811 2.58912 20.7042H18.1133C18.1133 19.2811 16.949 18.1168 15.526 18.1168H12.9386V15.5294H19.407C19.7501 15.5294 20.0792 15.3931 20.3218 15.1505C20.5644 14.9079 20.7007 14.5789 20.7007 14.2358V1.29893C20.7007 0.955827 20.5644 0.626774 20.3218 0.384161C20.0792 0.141548 19.7501 0.00525007 19.407 0.00525007L1.29544 0.00525007C1.21798 -0.00175002 1.14004 -0.00175002 1.06258 0.00525007C1.01088 0.00214243 0.959038 0.00214243 0.907337 0.00525007L0.881464 0.00525007ZM2.58912 2.59262H18.1133V12.9421H2.58912V2.59262Z" fill="white"/>
</svg>
