<svg width="20" height="22" viewBox="0 0 20 22" fill="none" xmlns="http://www.w3.org/2000/svg">
<path d="M8.25 0C6.7375 0 5.5 1.2375 5.5 2.75H2.75C1.2375 2.75 0 3.9875 0 5.5H19.25C19.25 3.9875 18.0125 2.75 16.5 2.75H13.75C13.75 1.2375 12.5125 0 11 0H8.25ZM2.75 8.25V21.4775C2.75 21.78 2.97 22 3.2725 22H16.005C16.3075 22 16.5275 21.78 16.5275 21.4775V8.25H13.7775V17.875C13.7775 18.645 13.1725 19.25 12.4025 19.25C11.6325 19.25 11.0275 18.645 11.0275 17.875V8.25H8.2775V17.875C8.2775 18.645 7.6725 19.25 6.9025 19.25C6.1325 19.25 5.5275 18.645 5.5275 17.875V8.25H2.7775H2.75Z" fill="white"/>
</svg>
